<?xml version="1.0" standalone="no"?>
<!DOCTYPE svg PUBLIC "-//W3C//DTD SVG 20010904//EN"
 "http://www.w3.org/TR/2001/REC-SVG-20010904/DTD/svg10.dtd">
<svg version="1.0" xmlns="http://www.w3.org/2000/svg"
 width="481.000000pt" height="481.000000pt" viewBox="0 0 481.000000 481.000000"
 preserveAspectRatio="xMidYMid meet">
<metadata>
Created by potrace 1.14, written by Peter Selinger 2001-2017
</metadata>
<g transform="translate(0.000000,481.000000) scale(0.100000,-0.100000)"
fill="#000000" stroke="none">
<path d="M1862 3808 c-8 -8 -12 -57 -12 -154 l0 -143 30 10 c17 6 30 14 30 19
0 16 105 52 169 57 68 6 142 -9 221 -45 47 -20 52 -21 73 -4 9 8 17 12 17 8 0
-4 9 -2 20 4 18 10 20 21 20 125 0 103 -2 115 -19 125 -29 15 -533 14 -549 -2z"/>
<path d="M2545 3811 c-20 -8 -20 -17 -20 -251 0 -180 -3 -244 -12 -247 -21 -8
-225 -8 -230 0 -2 4 -9 4 -16 0 -6 -3 -59 -6 -118 -5 -101 2 -109 0 -124 -20
-12 -19 -15 -63 -15 -273 0 -137 4 -254 8 -260 14 -20 47 -32 67 -25 11 4 30
4 42 -1 13 -5 25 -4 28 1 4 7 13 6 26 0 13 -8 19 -7 19 0 0 8 6 8 20 0 14 -8
26 -8 40 0 14 8 20 8 20 0 0 -8 6 -8 20 0 14 8 20 8 20 0 0 -8 6 -8 20 0 14 8
20 8 20 0 0 -7 6 -7 21 1 14 7 25 7 31 1 6 -6 21 -7 38 -2 16 5 31 6 33 3 3
-2 13 -6 24 -7 17 -3 18 -18 18 -244 0 -170 4 -245 12 -253 15 -15 540 -16
555 -1 7 7 11 100 11 254 0 161 3 245 10 250 6 4 19 2 29 -3 12 -7 18 -6 18 1
0 7 6 8 17 1 10 -5 26 -5 39 -1 12 5 25 6 28 3 9 -10 56 -10 56 0 0 4 9 3 20
-3 12 -6 20 -7 20 -1 0 6 11 6 30 1 19 -5 28 -5 25 1 -4 5 3 6 17 0 13 -4 32
-5 43 -1 11 4 29 4 40 0 11 -4 32 -4 47 1 18 5 28 4 28 -3 0 -6 9 -4 22 4 22
15 22 17 23 287 0 172 -4 276 -10 281 -6 5 -87 8 -180 7 -94 0 -175 2 -181 6
-6 3 -14 4 -17 0 -6 -5 -39 -7 -106 -4 -17 1 -18 14 -18 234 0 128 -3 243 -7
255 l-7 22 -262 -1 c-144 0 -271 -4 -282 -8z"/>
<path d="M1363 3307 c-27 -12 -25 11 -25 -315 -1 -226 0 -244 18 -256 12 -9
25 -11 35 -5 9 4 19 6 22 3 10 -10 57 -11 57 -2 0 5 6 6 12 2 19 -12 48 -12
48 -1 0 6 5 6 13 0 6 -5 21 -8 32 -7 24 3 59 4 103 4 17 0 38 0 45 0 6 1 24
-1 40 -3 15 -2 27 0 27 5 0 5 6 6 13 1 6 -4 19 -8 27 -8 13 0 15 -35 18 -247
2 -232 4 -247 21 -253 26 -8 514 -9 540 0 20 6 21 13 21 118 l0 112 -36 -37
c-62 -67 -61 -67 -321 200 -309 317 -299 304 -347 425 -27 67 -31 116 -23 232
l2 30 -155 0 c-85 0 -157 3 -160 6 -3 4 -15 2 -27 -4z"/>
<path d="M1718 1961 c-168 -56 -215 -253 -91 -377 71 -71 222 -81 289 -19 20
19 63 93 57 98 -3 3 -1 11 3 18 7 12 8 33 5 84 -1 12 -19 15 -101 15 -55 0
-100 -3 -101 -7 -5 -48 -4 -73 5 -74 6 -1 27 -2 46 -2 57 -2 62 -35 9 -62 -38
-20 -78 -19 -116 5 -80 48 -81 161 -1 210 37 22 111 20 137 -4 16 -15 20 -13
49 15 18 17 32 35 32 39 0 16 -77 60 -115 65 -22 3 -44 7 -50 9 -5 2 -31 -4
-57 -13z"/>
<path d="M3187 1974 c-4 -4 -15 -8 -25 -9 -43 -3 -108 -46 -140 -94 -78 -114
-32 -278 92 -330 26 -12 52 -18 57 -15 5 3 9 1 9 -4 0 -5 17 -6 40 -2 22 4 40
6 40 3 0 -7 65 30 88 50 l22 21 -30 31 -31 32 -37 -18 c-91 -47 -182 6 -182
105 0 48 18 83 54 105 37 22 104 21 139 -2 23 -15 26 -14 56 17 l31 32 -23 22
c-13 12 -29 22 -35 22 -7 0 -12 4 -12 9 0 5 -18 11 -39 15 -22 3 -46 8 -53 11
-8 3 -17 2 -21 -1z"/>
<path d="M289 1911 c-1 -177 1 -373 5 -379 4 -8 170 -7 216 1 43 7 71 27 86
62 26 63 15 110 -35 152 -14 12 -21 22 -16 23 19 0 42 54 40 91 -3 47 -32 85
-70 94 -16 4 -74 8 -127 9 l-98 2 -1 -55z m193 -49 c6 -6 8 -20 6 -33 -2 -19
-11 -25 -38 -29 -19 -4 -41 -4 -47 -2 -13 4 -18 63 -7 74 8 8 76 0 86 -10z
m16 -169 c31 -42 3 -73 -67 -73 l-41 0 0 44 c0 34 4 45 18 48 33 7 77 -2 90
-19z"/>
<path d="M709 1941 c-6 -152 0 -404 10 -410 6 -4 28 -7 49 -6 l37 1 3 72 3 72
34 0 c32 0 36 -4 66 -65 36 -74 40 -78 89 -80 47 -2 53 11 25 56 -13 20 -21
40 -18 43 4 3 2 6 -4 6 -9 0 -38 51 -31 54 56 23 81 73 75 148 -9 108 -43 129
-214 132 l-123 3 -1 -26z m228 -82 c7 -7 13 -27 13 -45 0 -40 -24 -54 -96 -54
l-44 0 0 54 c0 34 5 56 13 59 20 8 99 -3 114 -14z"/>
<path d="M1137 1944 c-2 -12 0 -29 5 -38 6 -11 5 -16 -3 -16 -7 0 -9 -3 -5 -7
4 -4 28 -8 54 -9 26 -1 50 -2 54 -3 4 0 7 -56 6 -123 l-1 -123 -51 -5 -51 -5
-6 -42 c-3 -27 -1 -43 5 -44 55 -6 285 -4 299 3 13 7 17 19 14 46 l-2 37 -53
3 -52 3 0 128 0 127 43 -1 c23 -1 48 1 55 3 13 4 17 81 5 83 -5 1 -76 2 -160
3 -148 1 -152 1 -156 -20z"/>
<path d="M2089 1821 c0 -80 -1 -176 -1 -212 0 -37 2 -71 5 -76 3 -5 25 -9 49
-8 l43 1 3 87 c1 48 6 87 10 88 4 1 40 2 80 3 58 1 72 -1 73 -14 1 -8 2 -44 3
-80 0 -36 4 -70 8 -76 6 -8 56 -11 89 -5 7 1 10 399 3 422 -3 12 -15 16 -47
14 -23 -2 -44 -3 -48 -4 -3 -1 -5 -38 -5 -83 l1 -83 -82 -2 -82 -1 -3 86 -3
86 -47 1 -48 2 -1 -146z"/>
<path d="M2561 1960 c-4 -3 -8 -23 -7 -45 l1 -40 55 1 c30 0 57 -4 60 -8 3 -4
5 -81 5 -172 0 -92 3 -167 7 -167 32 -5 75 -4 84 3 6 5 10 66 9 173 -1 160 0
165 19 166 23 2 74 6 94 8 7 1 12 16 12 41 0 25 -5 40 -12 41 -44 4 -321 4
-327 -1z"/>
<path d="M3602 1961 c-13 -8 -42 -78 -34 -85 3 -3 1 -6 -5 -6 -5 0 -10 -6 -10
-12 -1 -12 -44 -132 -92 -258 -31 -82 -35 -78 70 -71 11 1 19 13 23 34 l6 33
81 0 c77 -1 80 -2 86 -26 4 -14 11 -30 17 -35 12 -12 81 -13 92 -2 4 4 0 26
-9 49 -8 24 -32 88 -52 143 -20 55 -39 107 -42 115 -4 8 -7 17 -8 20 -7 30
-29 87 -36 94 -10 11 -73 16 -87 7z m79 -261 c3 -10 -7 -15 -39 -16 -41 -2
-43 -1 -38 25 6 35 23 88 32 103 7 11 29 -43 45 -112z"/>
<path d="M3942 1961 c-4 -3 -8 -103 -8 -221 l1 -215 43 0 c24 0 46 2 50 5 4 3
7 34 7 70 l0 65 35 0 c33 0 37 -3 70 -70 l36 -70 43 0 c23 0 45 3 47 7 3 4
-11 38 -31 75 l-35 68 24 20 c50 40 66 136 34 201 -25 52 -68 67 -194 69 -63
1 -118 -1 -122 -4z m200 -90 c22 -4 38 -35 32 -64 -7 -41 -17 -47 -85 -47
l-56 0 2 53 c1 28 3 54 4 57 1 5 81 5 103 1z"/>
<path d="M4381 1960 c-9 -6 -9 -411 1 -425 5 -8 205 -13 274 -6 6 1 11 19 10
44 l-1 42 -95 5 c-93 5 -95 5 -96 30 -1 49 9 55 83 54 37 0 74 1 81 4 13 4 17
81 5 83 -5 0 -44 1 -87 2 l-80 2 -2 30 c-3 46 8 52 96 50 49 -1 84 2 88 9 8
13 10 75 2 77 -19 4 -272 4 -279 -1z"/>
<path d="M730 1262 c0 -5 9 -17 19 -26 31 -28 46 -73 33 -100 -11 -24 -9 -25
42 -17 5 0 4 7 -3 14 -6 8 -9 23 -6 35 5 27 37 82 47 82 4 0 8 5 8 10 0 6 -9
10 -20 10 -11 0 -18 -5 -15 -12 2 -7 -2 -22 -11 -33 -15 -20 -15 -20 -35 4
-16 19 -17 26 -7 32 8 6 1 9 -19 9 -18 0 -33 -4 -33 -8z"/>
<path d="M955 1257 c-32 -20 -45 -41 -41 -68 5 -34 27 -69 46 -70 68 -7 110
20 110 70 -1 56 -69 97 -115 68z m75 -38 c19 -34 8 -72 -22 -83 -28 -10 -41
-2 -64 40 -13 22 -4 49 24 71 18 15 46 2 62 -28z"/>
<path d="M1114 1258 c-3 -5 -1 -8 5 -8 5 0 8 -21 7 -47 -3 -60 26 -95 71 -87
38 7 53 29 53 80 0 23 3 49 6 58 4 12 0 16 -15 16 -21 0 -29 -14 -13 -24 8 -5
6 -96 -3 -105 -12 -11 -54 -11 -61 1 -11 18 -13 90 -2 110 7 15 4 17 -17 16
-15 -2 -29 -6 -31 -10z"/>
<path d="M1310 1261 c0 -6 3 -12 8 -14 8 -6 7 -95 -2 -117 -5 -11 1 -15 25
-16 21 -1 27 2 20 9 -14 14 -14 57 -1 57 6 0 24 -16 41 -35 42 -48 70 -47 31
1 -28 33 -29 38 -16 62 13 24 12 29 -5 43 -21 17 -101 25 -101 10z m84 -34 c6
-25 7 -23 -21 -31 -21 -7 -23 -4 -23 27 0 30 3 34 19 30 11 -3 22 -14 25 -26z"/>
<path d="M1567 1257 c10 -16 11 -97 2 -122 -6 -17 -3 -21 17 -21 21 0 23 4 18
33 -5 33 -5 33 34 33 36 0 40 -2 38 -25 0 -14 -4 -25 -8 -25 -5 0 -8 -4 -8 -8
0 -4 11 -8 24 -8 23 0 23 2 18 63 -3 43 -1 68 8 78 11 14 9 15 -19 13 -17 -1
-31 -6 -31 -10 0 -4 4 -8 9 -8 10 0 7 -32 -4 -49 -5 -10 -37 -7 -55 4 -13 8
-13 38 0 51 8 8 2 11 -20 12 -21 0 -28 -3 -23 -11z"/>
<path d="M1760 1260 c0 -4 3 -10 7 -14 10 -10 11 -116 1 -116 -4 0 -8 -3 -8
-7 0 -5 16 -8 35 -8 19 0 35 3 35 7 0 4 -6 8 -13 8 -8 0 -12 11 -11 28 2 35 1
34 23 23 15 -8 20 -7 25 5 3 9 6 17 6 18 0 1 -13 1 -29 -2 -28 -4 -30 -2 -27
24 2 30 5 31 44 19 16 -5 22 -2 22 10 0 13 -10 16 -55 14 -30 -1 -55 -5 -55
-9z"/>
<path d="M1983 1251 c-3 -11 -17 -45 -33 -75 -15 -31 -25 -56 -21 -57 3 0 14
-2 24 -4 14 -3 16 0 7 10 -8 10 -8 15 2 21 22 14 63 9 63 -6 0 -20 14 -29 37
-22 11 2 15 8 9 11 -5 4 -23 37 -40 74 -17 37 -33 67 -37 67 -3 0 -8 -9 -11
-19z m20 -53 c6 -23 -12 -43 -25 -30 -9 9 1 52 12 52 4 0 10 -10 13 -22z"/>
<path d="M2120 1253 c0 -7 4 -13 8 -13 11 0 3 -104 -9 -108 -5 -2 -7 -7 -5
-11 8 -12 109 -3 117 11 11 18 2 23 -16 8 -19 -16 -71 -5 -58 13 5 7 8 23 6
37 -6 42 -6 44 1 61 6 13 2 17 -18 15 -14 0 -26 -7 -26 -13z"/>
<path d="M2275 1261 c-13 -13 -2 -20 24 -15 l29 6 -2 -56 c-1 -38 -6 -60 -16
-66 -12 -8 -12 -10 5 -11 11 0 28 -2 38 -4 17 -3 24 10 9 19 -4 2 -8 29 -7 58
0 51 1 53 28 51 17 -1 27 3 27 11 0 10 -17 14 -65 13 -36 0 -68 -3 -70 -6z"/>
<path d="M2458 1258 c14 -14 16 -102 3 -126 -8 -15 -5 -17 15 -17 23 1 48 15
27 15 -5 0 -9 10 -8 23 1 18 8 23 37 25 28 2 35 -1 35 -15 0 -10 -4 -23 -9
-29 -11 -15 24 -25 43 -13 8 5 9 9 3 9 -13 0 -14 108 -1 127 5 8 -2 11 -22 11
-27 -1 -28 -3 -18 -25 6 -14 7 -27 1 -33 -13 -13 -64 -20 -65 -9 -1 5 -2 15
-3 22 -1 6 2 20 6 30 7 14 4 17 -24 17 -25 0 -29 -3 -20 -12z"/>
<path d="M2840 1263 c-59 -24 -59 -130 0 -146 26 -7 26 7 0 33 -26 26 -26 64
0 90 21 21 43 17 68 -13 20 -23 10 -81 -16 -92 -24 -11 -30 -24 -9 -21 29 4
62 42 65 73 5 55 -55 97 -108 76z"/>
<path d="M2999 1250 c5 -8 7 -32 6 -53 -4 -47 19 -76 63 -82 28 -3 36 1 52 27
10 18 16 36 12 42 -9 14 -3 58 10 74 8 9 4 12 -16 12 -22 0 -25 -3 -18 -17 22
-45 -1 -134 -30 -117 -4 3 -8 0 -8 -7 0 -8 -7 -6 -19 5 -14 13 -18 29 -17 64
1 26 5 53 9 60 6 9 1 12 -22 10 -23 -2 -28 -5 -22 -18z"/>
<path d="M3190 1260 c0 -5 3 -10 8 -10 4 0 7 -27 7 -60 0 -33 -4 -60 -9 -60
-21 0 7 -14 30 -16 17 -1 22 2 14 10 -14 14 -13 56 3 56 6 0 25 -16 40 -35 28
-35 47 -45 47 -25 0 6 -13 23 -29 39 -26 26 -27 29 -11 39 22 14 20 40 -5 58
-22 16 -95 19 -95 4z m83 -25 c7 -14 6 -21 -9 -32 -27 -20 -34 -16 -34 21 0
26 4 34 16 32 9 -1 21 -11 27 -21z"/>
<path d="M3449 1251 c11 -20 10 -105 -2 -117 -15 -15 -6 -20 31 -18 20 1 47 2
60 3 13 1 22 7 22 16 0 14 -3 14 -29 1 -40 -21 -49 -6 -46 72 2 60 2 62 -22
62 -20 0 -22 -3 -14 -19z"/>
<path d="M3609 1251 c5 -9 7 -44 6 -77 -2 -53 0 -61 14 -59 9 2 20 4 25 4 5 1
4 7 -3 14 -11 15 -10 105 2 124 5 8 -2 11 -22 11 -24 -1 -28 -4 -22 -17z"/>
<path d="M3739 1257 c-29 -22 -38 -54 -30 -105 2 -13 55 -38 78 -37 39 4 52
13 46 34 -3 13 -1 21 6 21 7 0 10 4 7 9 -3 4 -17 6 -31 3 -20 -3 -23 -7 -14
-18 15 -18 2 -36 -24 -32 -26 4 -42 23 -49 60 -7 37 17 57 65 54 23 -2 36 1
34 8 -5 15 -69 18 -88 3z"/>
<path d="M3897 1264 c-4 -4 -3 -12 1 -18 11 -17 10 -116 -2 -116 -18 0 1 -11
29 -16 20 -3 25 -1 19 8 -5 7 -9 23 -10 36 -1 21 3 23 35 20 37 -3 45 -17 30
-48 -5 -12 0 -15 22 -15 19 -1 25 3 19 9 -14 14 -13 119 1 133 9 9 4 12 -20
11 -30 -1 -38 -8 -24 -22 4 -3 7 -15 8 -26 2 -19 -5 -22 -40 -22 -8 0 -19 0
-25 1 -14 1 -13 44 2 59 9 9 6 12 -13 12 -14 0 -29 -3 -32 -6z"/>
<path d="M4086 1254 c-4 -10 2 -12 24 -7 33 6 33 6 31 -66 0 -24 -5 -49 -10
-55 -7 -8 1 -11 25 -12 23 -1 31 3 25 10 -12 15 -19 96 -8 96 5 0 3 8 -4 17
-13 15 -11 16 18 10 22 -4 33 -2 37 8 4 12 -7 15 -64 14 -48 -1 -70 -5 -74
-15z"/>
<path d="M1855 1137 c-14 -11 -15 -16 -5 -22 11 -7 29 9 30 28 0 10 -3 9 -25
-6z"/>
<path d="M2663 1130 c3 -11 1 -23 -4 -26 -5 -3 -9 -11 -9 -17 1 -13 40 30 40
43 0 4 -7 11 -16 14 -13 5 -15 2 -11 -14z"/>
</g>
</svg>
